<?xml version="1.0" encoding="UTF-8"?><svg id="Vrstva_1" xmlns="http://www.w3.org/2000/svg" viewBox="0 0 318.49 92.4"><path d="M36.29,0C-3.91,29.7.49,65.3,32.79,69.8-1.91,69-20.51,38.3,36.29,0Z" fill="#fff"/><path d="M16.99,60.2c2.5,1.8,5.1,1.8,5.6-.2s-1.1-5.1-3.7-7-5.1-1.8-5.6.2,1.1,5.1,3.7,7Z" fill="#fff"/><path d="M16.49,92.4c40.2-29.7,35.8-65.3,3.5-69.8,34.7.8,53.3,31.5-3.5,69.8Z" fill="#fff"/><path d="M48.39,30.5c2.6,1.9,5.1,1.8,5.6-.2s-1.1-5.1-3.7-7-5.1-1.8-5.6.2,1.1,5.1,3.7,7Z" fill="#fff"/><path d="M110.89,70.4l-2-3.9h-15.1l-2,3.9h-8l12.2-22.9h10.9l12,23-8-.1ZM106.49,61.5l-4.4-8.7h-1.4l-4.4,8.7h10.2Z" fill="#fff"/><path d="M148.39,61.6c.1,1.1.1,1.9.1,2.3.1,1.4-.2,2.7-.8,4-.7,1.2-1.8,2-3.1,2.2-2.9.6-5.8.8-8.8.7-4.6,0-7.7-.1-9.3-.2-1.6-.1-3.1-.4-4.5-1-1.2-.6-2-1.6-2.4-2.9-.4-2.5-.6-5-.5-7.5,0-2.2,0-4.4.3-6.6.1-1.5.8-2.8,2-3.7,1.2-.7,2.6-1.1,4-1.2,3.4-.3,6.8-.4,10.2-.4,2.8,0,4.8.1,6.1.2,1.4.1,2.8.4,4.1,1.1,1,.6,1.8,1.7,2,2.9.2,1,.3,2.1.3,3.1v1.3h-7c0-.7-.1-1.4-.4-2-.3-.3-1-.5-2.3-.7s-2.9-.1-4.7-.1c-1.7,0-3.3,0-5,.2-1,.1-1.9.8-2.1,1.8-.3,1.4-.4,2.8-.3,4.2-.1,1.4,0,2.7.3,4.1.3,1,1.2,1.7,2.2,1.7,1.6.1,3.3.2,4.9.2,2.8,0,4.7-.1,5.7-.2.7,0,1.4-.4,1.8-1,.2-.7.4-1.5.3-2.3l6.9-.2Z" fill="#fff"/><path d="M175.89,70.4l-2-3.9h-15.2l-2,3.9h-8l12.2-23h10.9l12,23h-7.9ZM171.49,61.5l-4.5-8.7h-1.4l-4.4,8.7h10.3Z" fill="#fff"/><path d="M184.89,70.4v-23h16.6c3.6,0,5.9.1,7,.2,1.6.1,3.2.6,4.5,1.6,1.2,1.2,1.9,2.7,2,4.3.2,1.7.3,3.3.2,5,.1,2.1-.1,4.2-.4,6.3-.2,1.3-.8,2.6-1.8,3.6-.8.7-1.7,1.2-2.8,1.4-1.4.3-2.9.5-4.4.5-1.2,0-2.7.1-4.4.1h-16.5ZM191.79,64.6h9.7c1.5,0,3-.1,4.4-.2,1-.1,1.8-.8,2.1-1.8.3-1.1.4-2.3.3-3.5,0-1.3-.1-2.5-.3-3.8-.2-.9-.9-1.6-1.9-1.8-1.5-.2-3.1-.3-4.7-.3h-9.7l.1,11.4Z" fill="#fff"/><path d="M217.89,47.5h25.4v5.4h-18.5v3.3h17.6v5h-17.6v3.7h18.7v5.5h-25.6v-22.9h0Z" fill="#fff"/><path d="M245.69,47.5h12.7l6.8,14.9,6.8-14.9h12.6v23h-6.9l.2-17.2h-1.1l-8.7,17.2h-5.8l-8.7-17.2h-1.2l.2,17.2h-6.9v-23Z" fill="#fff"/><path d="M285.49,47.5h9.2l7.5,9.2,7.2-9.2h9.1l-12.6,14.8v8.1h-7.2v-8.1l-13.2-14.8Z" fill="#fff"/><path d="M103.79,31.6h1.3v.2c0,.4,0,.8.1,1.1.1.2.3.4.6.5,1.1.2,2.3.2,3.4.2s2.1,0,3.2-.2c.6-.1.9-.6.9-1.5,0-.4,0-.7-.2-1.1-.2-.2-.4-.4-.7-.4-.6-.1-1.3-.1-1.9-.1h-3.2c-.9.1-1.7-.1-2.5-.5-.4-.2-.7-.6-.9-1-.1-.4-.2-.9-.2-1.3-.1-.7.2-1.4.7-1.9.3-.2.6-.4,1-.5,1.4-.3,2.7-.4,4.1-.3,1,0,2.1.1,3.1.3.4.1.8.4,1.1.7.3.4.5.9.4,1.4v.5h-1.1v-.1c0-.3,0-.6-.1-.9-.2-.3-.6-.5-1-.6-.8-.1-1.6-.2-2.4-.2-1.1,0-2.3,0-3.4.3-.4.1-.7.3-.9.7-.1.2-.1.5-.1.7,0,.3,0,.7.2,1s.9.5,2,.6h4.3c.7,0,1.4.1,2,.4.7.5,1.1,1.4,1,2.2,0,.6-.1,1.2-.4,1.7-.2.4-.5.6-.9.8-.6.2-1.2.3-1.8.4-.7.1-1.8.1-3.2.1-.8,0-1.5,0-2.3-.1-.5,0-1.1-.2-1.5-.5s-.6-.7-.7-1.2c0-.3-.1-.5-.1-.8l.1-.6Z" fill="#fff"/><path d="M128.39,34.7l-1.2-2.1h-8l-1.2,2.1h-1.5l5.6-9.8h2.1l5.6,9.8h-1.4ZM126.59,31.5l-3.1-5.5h-.5l-3.1,5.5h6.7Z" fill="#fff"/><path d="M132.19,24.9h2.6l5.3,8.3,5.3-8.3h2.6v9.8h-1.3v-8.6h-.6l-5.5,8.6h-1.1l-5.6-8.6h-.6v8.6h-1.3l.2-9.8Z" fill="#fff"/><path d="M151.19,24.9h1.3v4.8c0,.9,0,1.9.1,2.8,0,.2.1.4.3.6.3.2.6.3.9.3,1,.1,1.9.1,2.9.1,1.2,0,2.5,0,3.7-.2.6-.1.9-.3,1-.7.1-.5.1-1.1.1-1.6v-6.2h1.3v4.8c0,1.3,0,2.2-.1,2.7,0,.7-.4,1.4-.9,1.8-.3.2-.6.3-.9.3-.5.1-1,.1-1.4.1h-2.5c-1.7,0-2.8-.1-3.3-.1-.3,0-.7-.1-1-.2-.2-.1-.5-.2-.7-.4-.4-.3-.6-.7-.7-1.2-.1-1.1-.2-2.1-.1-3.2v-4.5Z" fill="#fff"/><path d="M165.99,34.7v-9.8h9.6v1.1h-8.3v3h8v1.2h-8v3.4h8.3v1.2l-9.6-.1Z" fill="#fff"/><path d="M178.29,24.9h1.3v8.7h7.8v1.2h-9.1v-9.9Z" fill="#fff"/><path d="M199.09,34.7v-9.8h6.2c1.6,0,2.6.1,3,.1.5.1.9.3,1.2.6.5.7.7,1.5.6,2.3,0,.6-.1,1.3-.3,1.9-.2.4-.5.7-.9.9-.3.2-.7.3-1.1.3h-7.5v3.7h-1.2ZM200.39,29.9h4.9c1.2,0,1.9,0,2.3-.1.5,0,.9-.3,1-.8.1-.4.1-.7.1-1.1s0-.8-.1-1.2c-.1-.4-.4-.6-1-.7-.4,0-1.1-.1-2.3-.1h-4.9v4Z" fill="#fff"/><path d="M212.69,24.9h1.3v9.8h-1.3v-9.8Z" fill="#fff"/><path d="M228.19,34.7l-1.2-2.1h-8l-1.2,2.1h-1.5l5.7-9.8h2.1l5.6,9.8h-1.5ZM226.39,31.5l-3.1-5.5h-.5l-3.1,5.5h6.7Z" fill="#fff"/><path d="M231.69,31.6h1.3v.2c0,.4,0,.8.1,1.1.1.2.3.4.6.5,1.1.2,2.3.2,3.4.2s2.1,0,3.2-.2c.6-.1.9-.6.9-1.5,0-.4,0-.7-.2-1.1-.2-.2-.4-.4-.7-.4-.6-.1-1.3-.1-1.9-.1h-3.2c-.9.1-1.7-.1-2.5-.5-.4-.2-.7-.6-.9-1-.1-.4-.2-.9-.2-1.3-.1-.7.2-1.4.7-1.9.3-.2.6-.4,1-.5,1.4-.3,2.7-.4,4.1-.3,1,0,2.1.1,3.1.3.4.1.8.4,1.1.7.3.4.5.9.4,1.4v.5h-1v-.1c0-.3,0-.6-.1-.9-.2-.3-.6-.5-1-.6-.8-.1-1.6-.2-2.4-.2-1.1,0-2.3,0-3.4.3-.4.1-.7.3-.9.7-.1.2-.1.5-.1.7,0,.3,0,.7.2,1s.9.5,2,.6h4.4c.7,0,1.4.1,2,.4.7.5,1.1,1.4,1,2.2,0,.6-.1,1.2-.4,1.7-.2.4-.5.6-.9.8-.6.2-1.2.3-1.8.4-.7.1-1.8.1-3.2.1-.8,0-1.5,0-2.3-.1-.5,0-1.1-.2-1.5-.5s-.6-.7-.7-1.2c0-.3-.1-.5-.1-.8l-.1-.6Z" fill="#fff"/><path d="M245.49,34.7v-9.8h9.6v1.1h-8.3v3h8v1.2h-8v3.4h8.3v1.2l-9.6-.1Z" fill="#fff"/><path d="M269.19,31.4c0,.6-.1,1.2-.2,1.8-.1.7-.7,1.3-1.5,1.3-1.2.2-2.3.2-3.5.2-1.5,0-3,0-4.5-.2-.8-.1-1.4-.7-1.6-1.5-.2-1-.3-2.1-.3-3.1,0-1.1.1-2.3.3-3.4.2-.8.9-1.4,1.8-1.5,1.3-.2,2.7-.2,4.1-.2,1.2,0,2.4,0,3.6.3.5.1,1,.4,1.3.9.2.4.3.9.3,1.4v.8h-1.2v-.3c0-.4,0-.7-.2-1.1-.2-.3-.6-.5-1.2-.6-.9-.1-1.8-.1-2.7-.1-1.1,0-2.2,0-3.3.1-.4,0-.8.2-1,.5-.3.9-.4,1.8-.4,2.7,0,.8,0,1.6.1,2.4,0,.5.1.9.4,1.3.3.2.6.3.9.3.8.1,1.8.1,3,.1s2.4,0,3.6-.2c.3-.1.6-.3.7-.6.1-.4.1-.9.1-1.4l1.4.1Z" fill="#fff"/><path d="M271.99,24.9h1.3v4.2h1.7l6.4-4.2h2.3l-7.3,4.8,7.7,5h-2.3l-6.8-4.4h-1.7v4.5h-1.3v-9.9Z" fill="#fff"/><path d="M285.59,24.9h1.8l4.8,4.7,4.6-4.7h1.8l-5.8,5.8v4h-1.3v-4l-5.9-5.8ZM293.19,21.6l.8,1.2-2.4,1.4-.6-.8,2.2-1.8Z" fill="#fff"/></svg>