<?xml version="1.0" encoding="utf-8"?>
<!-- Generator: Adobe Illustrator 21.0.0, SVG Export Plug-In . SVG Version: 6.00 Build 0)  -->
<svg version="1.1" id="Vrstva_1" xmlns="http://www.w3.org/2000/svg" xmlns:xlink="http://www.w3.org/1999/xlink" x="0px" y="0px"
	 viewBox="0 0 318.5 92.4" style="enable-background:new 0 0 318.5 92.4;" xml:space="preserve">
<style type="text/css">
	.st0{fill:#FF1439;}
</style>
<title>logo-SPA-horizontal-lime</title>
<path class="st0" d="M36.3,0C-3.9,29.7,0.5,65.3,32.8,69.8C-1.9,69-20.5,38.3,36.3,0z"/>
<path class="st0" d="M17,60.2c2.5,1.8,5.1,1.8,5.6-0.2s-1.1-5.1-3.7-7s-5.1-1.8-5.6,0.2S14.4,58.3,17,60.2z"/>
<path class="st0" d="M16.5,92.4C56.7,62.7,52.3,27.1,20,22.6C54.7,23.4,73.3,54.1,16.5,92.4z"/>
<path class="st0" d="M48.4,30.5c2.6,1.9,5.1,1.8,5.6-0.2s-1.1-5.1-3.7-7s-5.1-1.8-5.6,0.2S45.8,28.6,48.4,30.5z"/>
<path class="st0" d="M110.9,70.4l-2-3.9H93.8l-2,3.9h-8L96,47.5h10.9l12,23L110.9,70.4z M106.5,61.5l-4.4-8.7h-1.4l-4.4,8.7H106.5z"
	/>
<path class="st0" d="M148.4,61.6c0.1,1.1,0.1,1.9,0.1,2.3c0.1,1.4-0.2,2.7-0.8,4c-0.7,1.2-1.8,2-3.1,2.2c-2.9,0.6-5.8,0.8-8.8,0.7
	c-4.6,0-7.7-0.1-9.3-0.2c-1.6-0.1-3.1-0.4-4.5-1c-1.2-0.6-2-1.6-2.4-2.9c-0.4-2.5-0.6-5-0.5-7.5c0-2.2,0-4.4,0.3-6.6
	c0.1-1.5,0.8-2.8,2-3.7c1.2-0.7,2.6-1.1,4-1.2c3.4-0.3,6.8-0.4,10.2-0.4c2.8,0,4.8,0.1,6.1,0.2c1.4,0.1,2.8,0.4,4.1,1.1
	c1,0.6,1.8,1.7,2,2.9c0.2,1,0.3,2.1,0.3,3.1v1.3h-7c0-0.7-0.1-1.4-0.4-2c-0.3-0.3-1-0.5-2.3-0.7s-2.9-0.1-4.7-0.1
	c-1.7,0-3.3,0-5,0.2c-1,0.1-1.9,0.8-2.1,1.8c-0.3,1.4-0.4,2.8-0.3,4.2c-0.1,1.4,0,2.7,0.3,4.1c0.3,1,1.2,1.7,2.2,1.7
	c1.6,0.1,3.3,0.2,4.9,0.2c2.8,0,4.7-0.1,5.7-0.2c0.7,0,1.4-0.4,1.8-1c0.2-0.7,0.4-1.5,0.3-2.3L148.4,61.6z"/>
<path class="st0" d="M175.9,70.4l-2-3.9h-15.2l-2,3.9h-8l12.2-23h10.9l12,23H175.9z M171.5,61.5l-4.5-8.7h-1.4l-4.4,8.7L171.5,61.5z
	"/>
<path class="st0" d="M184.9,70.4v-23h16.6c3.6,0,5.9,0.1,7,0.2c1.6,0.1,3.2,0.6,4.5,1.6c1.2,1.2,1.9,2.7,2,4.3
	c0.2,1.7,0.3,3.3,0.2,5c0.1,2.1-0.1,4.2-0.4,6.3c-0.2,1.3-0.8,2.6-1.8,3.6c-0.8,0.7-1.7,1.2-2.8,1.4c-1.4,0.3-2.9,0.5-4.4,0.5
	c-1.2,0-2.7,0.1-4.4,0.1L184.9,70.4z M191.8,64.6h9.7c1.5,0,3-0.1,4.4-0.2c1-0.1,1.8-0.8,2.1-1.8c0.3-1.1,0.4-2.3,0.3-3.5
	c0-1.3-0.1-2.5-0.3-3.8c-0.2-0.9-0.9-1.6-1.9-1.8c-1.5-0.2-3.1-0.3-4.7-0.3h-9.7L191.8,64.6z"/>
<path class="st0" d="M217.9,47.5h25.4v5.4h-18.5v3.3h17.6v5h-17.6v3.7h18.7v5.5h-25.6V47.5z"/>
<path class="st0" d="M245.7,47.5h12.7l6.8,14.9l6.8-14.9h12.6v23h-6.9l0.2-17.2h-1.1l-8.7,17.2h-5.8l-8.7-17.2h-1.2l0.2,17.2h-6.9
	L245.7,47.5z"/>
<path class="st0" d="M285.5,47.5h9.2l7.5,9.2l7.2-9.2h9.1l-12.6,14.8v8.1h-7.2v-8.1L285.5,47.5z"/>
<path class="st0" d="M103.8,31.6h1.3c0,0.1,0,0.1,0,0.2c0,0.4,0,0.8,0.1,1.1c0.1,0.2,0.3,0.4,0.6,0.5c1.1,0.2,2.3,0.2,3.4,0.2
	c1.1,0,2.1,0,3.2-0.2c0.6-0.1,0.9-0.6,0.9-1.5c0-0.4,0-0.7-0.2-1.1c-0.2-0.2-0.4-0.4-0.7-0.4c-0.6-0.1-1.3-0.1-1.9-0.1h-3.2
	c-0.9,0.1-1.7-0.1-2.5-0.5c-0.4-0.2-0.7-0.6-0.9-1c-0.1-0.4-0.2-0.9-0.2-1.3c-0.1-0.7,0.2-1.4,0.7-1.9c0.3-0.2,0.6-0.4,1-0.5
	c1.4-0.3,2.7-0.4,4.1-0.3c1,0,2.1,0.1,3.1,0.3c0.4,0.1,0.8,0.4,1.1,0.7c0.3,0.4,0.5,0.9,0.4,1.4c0,0.1,0,0.3,0,0.5H113v-0.1
	c0-0.3,0-0.6-0.1-0.9c-0.2-0.3-0.6-0.5-1-0.6c-0.8-0.1-1.6-0.2-2.4-0.2c-1.1,0-2.3,0-3.4,0.3c-0.4,0.1-0.7,0.3-0.9,0.7
	c-0.1,0.2-0.1,0.5-0.1,0.7c0,0.3,0,0.7,0.2,1c0.2,0.3,0.9,0.5,2,0.6c0.3,0,1.8,0,4.3,0c0.7,0,1.4,0.1,2,0.4c0.7,0.5,1.1,1.4,1,2.2
	c0,0.6-0.1,1.2-0.4,1.7c-0.2,0.4-0.5,0.6-0.9,0.8c-0.6,0.2-1.2,0.3-1.8,0.4c-0.7,0.1-1.8,0.1-3.2,0.1c-0.8,0-1.5,0-2.3-0.1
	c-0.5,0-1.1-0.2-1.5-0.5c-0.4-0.3-0.6-0.7-0.7-1.2c0-0.3-0.1-0.5-0.1-0.8L103.8,31.6z"/>
<path class="st0" d="M128.4,34.7l-1.2-2.1h-8l-1.2,2.1h-1.5l5.6-9.8h2.1l5.6,9.8L128.4,34.7z M126.6,31.5l-3.1-5.5H123l-3.1,5.5
	L126.6,31.5z"/>
<path class="st0" d="M132.2,24.9h2.6l5.3,8.3l5.3-8.3h2.6v9.8h-1.3v-8.6h-0.6l-5.5,8.6h-1.1l-5.6-8.6h-0.6v8.6h-1.3L132.2,24.9z"/>
<path class="st0" d="M151.2,24.9h1.3v4.8c0,0.9,0,1.9,0.1,2.8c0,0.2,0.1,0.4,0.3,0.6c0.3,0.2,0.6,0.3,0.9,0.3c1,0.1,1.9,0.1,2.9,0.1
	c1.2,0,2.5,0,3.7-0.2c0.6-0.1,0.9-0.3,1-0.7c0.1-0.5,0.1-1.1,0.1-1.6v-6.2h1.3v4.8c0,1.3,0,2.2-0.1,2.7c0,0.7-0.4,1.4-0.9,1.8
	c-0.3,0.2-0.6,0.3-0.9,0.3c-0.5,0.1-1,0.1-1.4,0.1h-1.2H157c-1.7,0-2.8-0.1-3.3-0.1c-0.3,0-0.7-0.1-1-0.2c-0.2-0.1-0.5-0.2-0.7-0.4
	c-0.4-0.3-0.6-0.7-0.7-1.2c-0.1-1.1-0.2-2.1-0.1-3.2L151.2,24.9z"/>
<path class="st0" d="M166,34.7v-9.8h9.6V26h-8.3v3h8v1.2h-8v3.4h8.3v1.2L166,34.7z"/>
<path class="st0" d="M178.3,24.9h1.3v8.7h7.8v1.2h-9.1V24.9z"/>
<path class="st0" d="M199.1,34.7v-9.8h6.2c1.6,0,2.6,0.1,3,0.1c0.5,0.1,0.9,0.3,1.2,0.6c0.5,0.7,0.7,1.5,0.6,2.3
	c0,0.6-0.1,1.3-0.3,1.9c-0.2,0.4-0.5,0.7-0.9,0.9c-0.3,0.2-0.7,0.3-1.1,0.3c-0.3,0-1.1,0-2.5,0h-5v3.7L199.1,34.7z M200.4,29.9h4.9
	c1.2,0,1.9,0,2.3-0.1c0.5,0,0.9-0.3,1-0.8c0.1-0.4,0.1-0.7,0.1-1.1c0-0.4,0-0.8-0.1-1.2c-0.1-0.4-0.4-0.6-1-0.7
	c-0.4,0-1.1-0.1-2.3-0.1h-4.9L200.4,29.9z"/>
<path class="st0" d="M212.7,24.9h1.3v9.8h-1.3L212.7,24.9z"/>
<path class="st0" d="M228.2,34.7l-1.2-2.1h-8l-1.2,2.1h-1.5l5.7-9.8h2.1l5.6,9.8H228.2z M226.4,31.5l-3.1-5.5h-0.5l-3.1,5.5
	L226.4,31.5z"/>
<path class="st0" d="M231.7,31.6h1.3c0,0.1,0,0.1,0,0.2c0,0.4,0,0.8,0.1,1.1c0.1,0.2,0.3,0.4,0.6,0.5c1.1,0.2,2.3,0.2,3.4,0.2
	c1.1,0,2.1,0,3.2-0.2c0.6-0.1,0.9-0.6,0.9-1.5c0-0.4,0-0.7-0.2-1.1c-0.2-0.2-0.4-0.4-0.7-0.4c-0.6-0.1-1.3-0.1-1.9-0.1h-3.2
	c-0.9,0.1-1.7-0.1-2.5-0.5c-0.4-0.2-0.7-0.6-0.9-1c-0.1-0.4-0.2-0.9-0.2-1.3c-0.1-0.7,0.2-1.4,0.7-1.9c0.3-0.2,0.6-0.4,1-0.5
	c1.4-0.3,2.7-0.4,4.1-0.3c1,0,2.1,0.1,3.1,0.3c0.4,0.1,0.8,0.4,1.1,0.7c0.3,0.4,0.5,0.9,0.4,1.4c0,0.1,0,0.3,0,0.5H241v-0.1
	c0-0.3,0-0.6-0.1-0.9c-0.2-0.3-0.6-0.5-1-0.6c-0.8-0.1-1.6-0.2-2.4-0.2c-1.1,0-2.3,0-3.4,0.3c-0.4,0.1-0.7,0.3-0.9,0.7
	c-0.1,0.2-0.1,0.5-0.1,0.7c0,0.3,0,0.7,0.2,1c0.2,0.3,0.9,0.5,2,0.6c0.3,0,1.8,0,4.4,0c0.7,0,1.4,0.1,2,0.4c0.7,0.5,1.1,1.4,1,2.2
	c0,0.6-0.1,1.2-0.4,1.7c-0.2,0.4-0.5,0.6-0.9,0.8c-0.6,0.2-1.2,0.3-1.8,0.4c-0.7,0.1-1.8,0.1-3.2,0.1c-0.8,0-1.5,0-2.3-0.1
	c-0.5,0-1.1-0.2-1.5-0.5c-0.4-0.3-0.6-0.7-0.7-1.2c0-0.3-0.1-0.5-0.1-0.8L231.7,31.6z"/>
<path class="st0" d="M245.5,34.7v-9.8h9.6V26h-8.3v3h8v1.2h-8v3.4h8.3v1.2L245.5,34.7z"/>
<path class="st0" d="M269.2,31.4c0,0.6-0.1,1.2-0.2,1.8c-0.1,0.7-0.7,1.3-1.5,1.3c-1.2,0.2-2.3,0.2-3.5,0.2c-1.5,0-3,0-4.5-0.2
	c-0.8-0.1-1.4-0.7-1.6-1.5c-0.2-1-0.3-2.1-0.3-3.1c0-1.1,0.1-2.3,0.3-3.4c0.2-0.8,0.9-1.4,1.8-1.5c1.3-0.2,2.7-0.2,4.1-0.2
	c1.2,0,2.4,0,3.6,0.3c0.5,0.1,1,0.4,1.3,0.9c0.2,0.4,0.3,0.9,0.3,1.4c0,0.1,0,0.4,0,0.8h-1.2v-0.3c0-0.4,0-0.7-0.2-1.1
	c-0.2-0.3-0.6-0.5-1.2-0.6c-0.9-0.1-1.8-0.1-2.7-0.1c-1.1,0-2.2,0-3.3,0.1c-0.4,0-0.8,0.2-1,0.5c-0.3,0.9-0.4,1.8-0.4,2.7
	c0,0.8,0,1.6,0.1,2.4c0,0.5,0.1,0.9,0.4,1.3c0.3,0.2,0.6,0.3,0.9,0.3c0.8,0.1,1.8,0.1,3,0.1c1.2,0,2.4,0,3.6-0.2
	c0.3-0.1,0.6-0.3,0.7-0.6c0.1-0.4,0.1-0.9,0.1-1.4L269.2,31.4z"/>
<path class="st0" d="M272,24.9h1.3v4.2h1.7l6.4-4.2h2.3l-7.3,4.8l7.7,5h-2.3l-6.8-4.4h-1.7v4.5H272V24.9z"/>
<path class="st0" d="M285.6,24.9h1.8l4.8,4.7l4.6-4.7h1.8l-5.8,5.8v4h-1.3v-4L285.6,24.9z M293.2,21.6l0.8,1.2l-2.4,1.4l-0.6-0.8
	L293.2,21.6z"/>
</svg>
