<?xml version="1.0" encoding="UTF-8"?><svg xmlns="http://www.w3.org/2000/svg" xmlns:xlink="http://www.w3.org/1999/xlink" viewBox="0 0 118.33 118.33"><defs><linearGradient id="Nepojmenovaný_přechod_2" x1="29.2" y1="7.83" x2="86.74" y2="106.41" gradientUnits="userSpaceOnUse"><stop offset="0" stop-color="#06f"/><stop offset="1" stop-color="#ff1439"/></linearGradient></defs><g id="Vrstva_2"><circle cx="59.17" cy="59.17" r="59.17" fill="url(#Nepojmenovaný_přechod_2)"/></g><g id="Vrstva_1"><path d="M74.64,3.67c-48.29,35.68-43.01,78.44-4.2,83.85-41.69-.96-64.03-37.84,4.2-83.85Z" fill="#fff" stroke="#fff" stroke-miterlimit="10" stroke-width="2"/><path d="M51.45,75.98c3,2.16,6.13,2.16,6.73-.24s-1.32-6.13-4.44-8.41-6.13-2.16-6.73.24,1.32,6.13,4.44,8.41Z" fill="#fff" stroke="#fff" stroke-miterlimit="10" stroke-width="2"/><path d="M50.85,114.67c48.29-35.68,43.01-78.44,4.2-83.85,41.69.96,64.03,37.84-4.2,83.85Z" fill="#fff" stroke="#fff" stroke-miterlimit="10" stroke-width="2"/><path d="M89.17,40.31c3.12,2.28,6.13,2.16,6.73-.24s-1.32-6.13-4.44-8.41-6.13-2.16-6.73.24,1.32,6.13,4.44,8.41Z" fill="#fff" stroke="#fff" stroke-miterlimit="10" stroke-width="2"/></g></svg>